# xmcd CD database file
#
# Track frame offsets:
#	150
#	17330
#	32960
#	49002
#	67467
#	84637
#	100055
#	117955
#	134392
#	149995
#	167072
#	185417
#	198242
#	214132
#
# Disc length: 3027 seconds
#
# Revision: 1
# Processed by: cddbd v1.5.2PL0 Copyright (c) Steve Scherf et al.
# Submitted via: CD2WAV32(JP) R3.22
#
DISCID=d30bd10e
DTITLE=園まり - ベスト＆ベスト
DYEAR=2006
DGENRE=Blues
TTITLE0=逢いたくて逢いたくて_1966
TTITLE1=何も云わないで_1964
TTITLE2=帰りたくないの_1967
TTITLE3=夢は夜ひらく_1966
TTITLE4=好きなの好きなの_1968
TTITLE5=何でもないわ_1966
TTITLE6=やさしい雨_1966
TTITLE7=一人で踊るブルース_1966
TTITLE8=つれてって_1967
TTITLE9=愛は惜しみなく_1967
TTITLE10=愛情_1967
TTITLE11=あなたのとりこに_1968
TTITLE12=泣きぬれて_1968
TTITLE13=ベッドで煙草を吸わないで_1969
EXTD=
EXTT0=発売元：ユニバーサルミュージック（株）\1,680
EXTT1=発売元：ユニバーサルミュージック（株）\1,680
EXTT2=発売元：ユニバーサルミュージック（株）\1,680
EXTT3=発売元：ユニバーサルミュージック（株）\1,680
EXTT4=発売元：ユニバーサルミュージック（株）\1,680
EXTT5=発売元：ユニバーサルミュージック（株）\1,680
EXTT6=発売元：ユニバーサルミュージック（株）\1,680
EXTT7=発売元：ユニバーサルミュージック（株）\1,680
EXTT8=発売元：ユニバーサルミュージック（株）\1,680
EXTT9=発売元：ユニバーサルミュージック（株）\1,680
EXTT10=発売元：ユニバーサルミュージック（株）\1,680
EXTT11=発売元：ユニバーサルミュージック（株）\1,680
EXTT12=発売元：ユニバーサルミュージック（株）\1,680
EXTT13=発売元：ユニバーサルミュージック（株）\1,680
PLAYORDER=
